inDegrees=yes
name=ik_S52_A10_T01
DataType=double
version=3
OpenSimVersion=4.3-2021-08-27-4bc7ad9
endheader
time	pelvis_tilt	pelvis_list	pelvis_rotation	pelvis_tx	pelvis_ty	pelvis_tz	hip_flexion_r	hip_adduction_r	hip_rotation_r	knee_angle_r	knee_angle_r_beta	ankle_angle_r	subtalar_angle_r	mtp_angle_r	hip_flexion_l	hip_adduction_l	hip_rotation_l	knee_angle_l	knee_angle_l_beta	ankle_angle_l	subtalar_angle_l	mtp_angle_l	lumbar_extension	lumbar_bending	lumbar_rotation	arm_flex_r	arm_add_r	arm_rot_r	elbow_flex_r	pro_sup_r	wrist_flex_r	wrist_dev_r	arm_flex_l	arm_add_l	arm_rot_l	elbow_flex_l	pro_sup_l	wrist_flex_l	wrist_dev_l
19.89999999999966	-0.456529582383279	0.1486690077437341	26.47507544742029	0	0.9399999999999999	0	44.95964223802973	-9.999999494281548	-9.999958535514914	54.887555900305	0.9579685688327628	0	0	0	44.95964223802973	-9.999999494281548	-9.999958535514914	54.887555900305	0.9579685688327628	0	0	0	-0.2648900556527699	0.09725561828430615	0.4665285920520397	46.40708719018611	-3.971829541444647	0.9578865801690438	32.30258826873924	85.47321258910601	0	0	40.43304716702182	-14.02357951968893	2.237395542158459	47.39461523828026	79.39765201677959	0	0
19.91999999999966	-0.4625642736251568	0.1644340292346368	26.49564719337556	0	0.9399999999999999	0	44.9598874447648	-9.999999501642009	-9.999958987289228	54.88814780635868	0.957978899542262	0	0	0	44.9598874447648	-9.999999501642009	-9.999958987289228	54.88814780635868	0.957978899542262	0	0	0	-0.2634313610377215	0.1156183226396317	0.4726846894238965	44.96347408903683	-3.919160871023989	0.8027368139695491	31.65387969902553	86.71204772379647	0	0	38.83393764900457	-13.66826488078594	1.979063006226828	46.93483687554093	79.68783910157383	0	0
19.93999999999966	-0.5629452687777072	0.1116764510056529	26.52928026945427	0	0.9399999999999999	0	44.96009387501473	-9.999999507784135	-9.999959365721399	54.88864705112627	0.9579876130072298	0	0	0	44.96009387501473	-9.999999507784135	-9.999959365721399	54.88864705112627	0.9579876130072298	0	0	0	-0.3728359223000005	0.1044525075776389	0.4666110589293702	43.87021601270593	-3.848648737045634	0.7548637533872047	30.98421983077097	87.72260743264751	0	0	37.48861174638466	-13.54134188841577	1.731794446181385	46.50475410545371	80.48439579248074	0	0
19.95999999999966	-0.5896450427907707	0.08984320538496626	26.53408586902878	0	0.9399999999999999	0	44.96010951276975	-9.999999508440718	-9.999959401345627	54.88867636605335	0.9579881246492273	0	0	0	44.96010951276975	-9.999999508440718	-9.999959401345627	54.88867636605335	0.9579881246492273	0	0	0	-0.4064658234464031	0.0965884134816703	0.4829662364570118	43.92054315838533	-3.841473991547601	0.7112447799788765	30.96570858261481	87.72353771063911	0	0	36.10262532629334	-13.42030579296397	1.708554322794595	46.07485973127656	81.13675659891926	0	0
19.97999999999966	-0.6032743669869202	0.08578993715561745	26.54087951174549	0	0.9399999999999999	0	44.9605073889998	-9.999999519720197	-9.999960111178398	54.88965606754594	0.9580052236659597	0	0	0	44.9605073889998	-9.999999519720197	-9.999960111178398	54.88965606754594	0.9580052236659597	0	0	0	-0.4198587718964761	0.09746027250697439	0.481886103986143	42.65801204510543	-3.792871163873681	1.127839817825549	32.3353023573837	87.40319237290031	0	0	34.79591935185763	-13.20793695828196	2.043956823177396	45.50998559451295	81.2529332764493	0	0
19.99999999999966	-0.5968026234461112	0.1201887981279895	26.5988439645206	0	0.9399999999999999	0	44.96091652494658	-9.999999531059077	-9.999960831846629	54.89066924257722	0.9580229069061544	0	0	0	44.96091652494658	-9.999999531059077	-9.999960831846629	54.89066924257722	0.9580229069061544	0	0	0	-0.3995346673207541	0.1266852361901567	0.5078300622701781	41.31132665684527	-3.745712480070154	1.593382467473369	33.6832594028898	87.12969271227129	0	0	33.45873146666633	-12.87157934328898	2.560536615755123	45.12716939107155	80.97760721547469	0	0
20.01999999999966	-0.609904587227864	0.1479657097679514	26.61317825339731	0	0.9399999999999999	0	44.96086136825291	-9.999999530114742	-9.99996075558289	54.89051141666209	0.9580201523242905	0	0	0	44.96086136825291	-9.999999530114742	-9.99996075558289	54.89051141666209	0.9580201523242905	0	0	0	-0.3909788882535968	0.1397793769157483	0.4740774006787142	41.26461149504474	-3.392943947208887	1.225677743154794	27.92868450792126	87.66018155305403	0	0	32.16575322957492	-12.69156642242631	2.741213236092894	45.52370459816154	80.91829403048318	0	0
